<svg width="143" height="31" viewBox="0 0 143 31" fill="none" xmlns="http://www.w3.org/2000/svg">
<path d="M2.996 6.276L0.296 5.772V3.252H5.984C6.8 3.252 7.88 3.204 9.224 3.108C9.512 3.084 9.872 3.06 10.304 3.036C10.736 3.012 11.24 3 11.816 3C14.432 3 16.484 3.24 17.972 3.72C19.46 4.2 20.492 4.884 21.068 5.772C21.668 6.66 21.968 7.776 21.968 9.12C21.968 10.92 21.404 12.408 20.276 13.584C19.172 14.76 17.756 15.468 16.028 15.708C18.428 15.708 20.312 16.248 21.68 17.328C23.072 18.408 23.768 19.932 23.768 21.9C23.768 24.468 22.88 26.496 21.104 27.984C19.352 29.472 16.364 30.216 12.14 30.216C11.468 30.216 10.82 30.192 10.196 30.144C9.572 30.12 9.128 30.108 8.864 30.108C8 30.036 7.064 30 6.056 30H0.224V27.624L2.996 27.228V6.276ZM9.08 14.808C9.512 14.856 10.484 14.88 11.996 14.88C13.316 14.88 14.288 14.436 14.912 13.548C15.536 12.636 15.848 11.364 15.848 9.732C15.848 8.22 15.512 7.116 14.84 6.42C14.168 5.724 13.076 5.376 11.564 5.376C11.204 5.376 10.784 5.4 10.304 5.448C9.824 5.472 9.416 5.508 9.08 5.556V14.808ZM9.08 27.444C9.56 27.636 10.508 27.732 11.924 27.732C13.7 27.732 14.984 27.264 15.776 26.328C16.592 25.392 17 24.036 17 22.26C17 20.58 16.628 19.38 15.884 18.66C15.14 17.94 13.964 17.58 12.356 17.58C11.036 17.58 9.944 17.604 9.08 17.652V27.444ZM42.5527 30.36C41.6887 30.36 41.0647 30.18 40.6807 29.82C40.2967 29.436 40.1047 28.884 40.1047 28.164V27.372C39.5287 28.164 38.6647 28.872 37.5127 29.496C36.3607 30.096 35.1967 30.396 34.0207 30.396C31.6687 30.396 29.9887 29.82 28.9807 28.668C27.9967 27.492 27.5047 25.536 27.5047 22.8V12.792L25.8127 12.324V10.02L32.5807 9.552H32.6167L33.4087 10.056V22.944C33.4087 24.504 33.6007 25.596 33.9847 26.22C34.3687 26.82 35.0527 27.12 36.0367 27.12C37.3807 27.12 38.5087 26.664 39.4207 25.752V12.792L37.1887 12.252V10.02L44.3167 9.552H44.4247L45.2887 10.056V27.516H47.1967V29.82C46.3807 29.988 45.6247 30.12 44.9287 30.216C44.2567 30.312 43.4647 30.36 42.5527 30.36ZM51.1047 4.008L48.5487 3.54V1.344L55.7847 0.479998H55.8927L56.9367 1.236L56.9727 9.048L56.6847 12.252C57.4287 11.556 58.4127 10.944 59.6367 10.416C60.8607 9.864 62.2047 9.588 63.6687 9.588C65.1807 9.588 66.3567 9.864 67.1967 10.416C68.0367 10.968 68.6247 11.808 68.9607 12.936C69.2967 14.064 69.4647 15.564 69.4647 17.436V27.3L71.6607 27.624V30H61.6527V27.624L63.5607 27.3V17.472C63.5607 15.792 63.3807 14.628 63.0207 13.98C62.6607 13.308 61.9287 12.972 60.8247 12.972C60.1527 12.972 59.4807 13.128 58.8087 13.44C58.1367 13.728 57.5727 14.088 57.1167 14.52V27.3L59.0967 27.624V30H49.2327V27.624L51.1047 27.3V4.008ZM85.1879 30.396C81.1559 30.396 78.1679 29.184 76.2239 26.76C74.2799 24.312 73.3079 20.952 73.3079 16.68C73.3079 13.92 73.8119 11.508 74.8199 9.444C75.8519 7.356 77.2919 5.748 79.1399 4.62C80.9879 3.492 83.1479 2.928 85.6199 2.928C89.7479 2.928 92.7839 4.08 94.7279 6.384C96.6959 8.664 97.6799 11.928 97.6799 16.176C97.6799 18.984 97.1639 21.468 96.1319 23.628C95.0999 25.764 93.6359 27.432 91.7399 28.632C89.8679 29.808 87.6839 30.396 85.1879 30.396ZM85.5119 5.304C83.7839 5.304 82.4399 6.252 81.4799 8.148C80.5439 10.044 80.0759 12.876 80.0759 16.644C80.0759 20.484 80.5439 23.34 81.4799 25.212C82.4159 27.06 83.7479 27.984 85.4759 27.984C87.1799 27.984 88.4999 26.976 89.4359 24.96C90.3959 22.92 90.8759 20.004 90.8759 16.212C90.8759 12.372 90.4199 9.6 89.5079 7.896C88.5959 6.168 87.2639 5.304 85.5119 5.304ZM102.196 13.764L100.072 13.116V10.308L106.624 9.516H106.732L107.668 10.272V11.604L107.632 12.432C108.472 11.64 109.54 10.968 110.836 10.416C112.132 9.864 113.488 9.588 114.904 9.588C116.344 9.588 117.472 9.852 118.288 10.38C119.128 10.884 119.728 11.7 120.088 12.828C120.472 13.956 120.664 15.492 120.664 17.436V27.3L122.68 27.588V30H112.888V27.624L114.652 27.3V17.472C114.652 16.32 114.568 15.432 114.4 14.808C114.256 14.16 113.992 13.692 113.608 13.404C113.224 13.116 112.672 12.972 111.952 12.972C110.848 12.972 109.6 13.488 108.208 14.52V27.3L110.188 27.624V30H100.216V27.624L102.196 27.3V13.764ZM134.359 30.396C131.071 30.396 128.635 29.472 127.051 27.624C125.467 25.752 124.675 23.208 124.675 19.992C124.675 17.808 125.083 15.924 125.899 14.34C126.715 12.756 127.855 11.556 129.319 10.74C130.807 9.9 132.547 9.48 134.539 9.48C137.059 9.48 138.979 10.116 140.299 11.388C141.643 12.66 142.339 14.46 142.387 16.788C142.387 18.324 142.279 19.56 142.063 20.496H130.795C130.915 22.536 131.407 24.096 132.271 25.176C133.159 26.232 134.395 26.76 135.979 26.76C136.867 26.76 137.791 26.616 138.751 26.328C139.735 26.016 140.527 25.668 141.127 25.284L142.135 27.48C141.511 28.176 140.443 28.836 138.931 29.46C137.443 30.084 135.919 30.396 134.359 30.396ZM136.663 18.12L136.699 16.608C136.699 15.096 136.495 13.944 136.087 13.152C135.679 12.36 134.983 11.964 133.999 11.964C132.991 11.964 132.211 12.408 131.659 13.296C131.107 14.16 130.807 15.768 130.759 18.12H136.663Z" fill="#005FA3"/>
</svg>
